<svg width="12" height="12" viewBox="0 0 12 12" fill="none" xmlns="http://www.w3.org/2000/svg">
<path d="M9.9375 1.5H7.875V1.125C7.875 0.503672 7.37133 0 6.75 0H5.25C4.62867 0 4.125 0.503672 4.125 1.125V1.5H2.0625C1.54474 1.5 1.125 1.91974 1.125 2.4375V3.1875C1.125 3.39462 1.29288 3.5625 1.5 3.5625H10.5C10.7071 3.5625 10.875 3.39462 10.875 3.1875V2.4375C10.875 1.91974 10.4553 1.5 9.9375 1.5ZM4.875 1.125C4.875 0.918281 5.04328 0.75 5.25 0.75H6.75C6.95672 0.75 7.125 0.918281 7.125 1.125V1.5H4.875V1.125Z" fill="#66686B"/>
<path d="M1.83667 4.3125C1.76975 4.3125 1.71643 4.36842 1.71962 4.43527L2.02899 10.9284C2.05759 11.5294 2.55118 12 3.15259 12H8.84743C9.44884 12 9.94243 11.5294 9.97102 10.9284L10.2804 4.43527C10.2836 4.36842 10.2303 4.3125 10.1634 4.3125H1.83667ZM7.50001 5.25C7.50001 5.04281 7.66782 4.875 7.87501 4.875C8.0822 4.875 8.25001 5.04281 8.25001 5.25V10.125C8.25001 10.3322 8.0822 10.5 7.87501 10.5C7.66782 10.5 7.50001 10.3322 7.50001 10.125V5.25ZM5.62501 5.25C5.62501 5.04281 5.79282 4.875 6.00001 4.875C6.2072 4.875 6.37501 5.04281 6.37501 5.25V10.125C6.37501 10.3322 6.2072 10.5 6.00001 10.5C5.79282 10.5 5.62501 10.3322 5.62501 10.125V5.25ZM3.75001 5.25C3.75001 5.04281 3.91782 4.875 4.12501 4.875C4.3322 4.875 4.50001 5.04281 4.50001 5.25V10.125C4.50001 10.3322 4.3322 10.5 4.12501 10.5C3.91782 10.5 3.75001 10.3322 3.75001 10.125V5.25Z" fill="#66686B"/>
</svg>
